<svg width="157" height="34" fill="none" xmlns="http://www.w3.org/2000/svg"><path d="M1 26.563a1 1 0 0 1-1-1V2.834a1 1 0 0 1 1-1h9.673c1.835 0 3.441.362 4.818 1.087 1.376.724 2.447 1.743 3.211 3.055.765 1.312 1.147 2.845 1.147 4.6 0 1.77-.394 3.304-1.183 4.6-.78 1.296-1.88 2.294-3.296 2.994-1.409.7-3.055 1.05-4.938 1.05H5.057a1 1 0 0 1-1-1v-3.215a1 1 0 0 1 1-1H9.08c.788 0 1.46-.137 2.016-.41.563-.283.994-.681 1.292-1.196.306-.515.459-1.123.459-1.823 0-.709-.153-1.312-.46-1.811a2.878 2.878 0 0 0-1.291-1.16c-.556-.273-1.228-.41-2.016-.41H7.713a1 1 0 0 0-1 1v17.367a1 1 0 0 1-1 1H1zM22.73 26.563a1 1 0 0 1-1-1V9.017a1 1 0 0 1 1-1h4.47a1 1 0 0 1 1 1v2.417a.109.109 0 0 0 .215.027c.34-1.262.868-2.189 1.585-2.78.74-.604 1.605-.905 2.596-.905.29 0 .575.024.857.072l.11.016c.435.07.723.466.723.907v3.697c0 .612-.612 1.065-1.22.994a10.952 10.952 0 0 0-1.243-.084 3.5 3.5 0 0 0-1.763.447c-.515.29-.922.7-1.22 1.231-.297.523-.446 1.14-.446 1.847v8.66a1 1 0 0 1-1 1h-4.665zM43.663 26.9c-2.012 0-3.734-.398-5.167-1.195A8.22 8.22 0 0 1 35.2 22.35c-.765-1.441-1.147-3.111-1.147-5.01 0-1.9.382-3.567 1.147-5a8.124 8.124 0 0 1 3.296-3.356c1.433-.805 3.155-1.207 5.167-1.207 2.013 0 3.735.402 5.168 1.207a8.125 8.125 0 0 1 3.296 3.356c.765 1.433 1.147 3.1 1.147 5 0 1.899-.382 3.569-1.147 5.01a8.221 8.221 0 0 1-3.296 3.356c-1.433.797-3.155 1.196-5.168 1.196zm.049-4.926c.563 0 1.05-.189 1.46-.567.411-.378.73-.918.955-1.618.225-.7.338-1.533.338-2.5 0-.973-.113-1.806-.339-2.499-.225-.7-.543-1.24-.953-1.617a2.083 2.083 0 0 0-1.461-.568c-.596 0-1.107.19-1.534.568-.426.378-.752.917-.978 1.617-.225.693-.338 1.526-.338 2.5 0 .966.113 1.799.338 2.5.226.7.552 1.239.978 1.617.427.378.938.567 1.534.567zM72.132 13.02c.108.558-.355 1.034-.923 1.034h-4.174c-.519 0-.921-.431-1.221-.855a1.725 1.725 0 0 0-.095-.123 2.234 2.234 0 0 0-.906-.628 3.073 3.073 0 0 0-1.207-.23c-.572 0-1.063.105-1.473.315-.41.209-.612.507-.604.893-.008.274.109.527.35.76.25.234.729.415 1.437.544l3.767.676c1.9.346 3.312.93 4.238 1.751.933.813 1.404 1.904 1.412 3.272-.008 1.32-.402 2.467-1.183 3.441-.772.966-1.831 1.714-3.175 2.246-1.336.523-2.862.785-4.576.785-2.834 0-5.051-.58-6.653-1.74-1.278-.929-2.104-2.097-2.476-3.503-.15-.57.32-1.084.91-1.084h4.654c.494 0 .885.387 1.156.8.144.22.335.408.574.564.499.314 1.126.471 1.883.471.612 0 1.115-.104 1.51-.314.402-.21.607-.507.615-.893-.008-.355-.185-.636-.531-.846-.338-.209-.87-.378-1.594-.507l-3.284-.58c-1.892-.33-3.308-.957-4.25-1.883-.942-.925-1.409-2.117-1.4-3.573-.009-1.288.33-2.38 1.014-3.273.692-.901 1.678-1.585 2.958-2.052 1.288-.475 2.813-.712 4.576-.712 2.68 0 4.793.555 6.338 1.666 1.27.908 2.048 2.1 2.333 3.578zM75.607 33.517a1 1 0 0 1-1-1v-23.5a1 1 0 0 1 1-1h4.617a1 1 0 0 1 1 1v2.15a.086.086 0 0 0 .166.03 5.605 5.605 0 0 1 1.04-1.67 5.06 5.06 0 0 1 1.74-1.268c.692-.322 1.497-.483 2.414-.483 1.224 0 2.387.326 3.49.978 1.11.652 2.012 1.678 2.704 3.078.7 1.401 1.05 3.22 1.05 5.458 0 2.14-.333 3.916-1.002 5.324-.66 1.409-1.545 2.46-2.656 3.152a6.701 6.701 0 0 1-3.634 1.038c-.87 0-1.646-.14-2.33-.423a5.38 5.38 0 0 1-1.739-1.17 5.415 5.415 0 0 1-1.084-1.655.058.058 0 0 0-.112.022v8.939a1 1 0 0 1-1 1h-4.664zm5.52-16.227c0 .901.117 1.682.35 2.342.242.652.58 1.16 1.014 1.521.443.355.97.532 1.582.532.612 0 1.13-.173 1.558-.52.434-.354.764-.857.99-1.509.233-.66.35-1.449.35-2.366 0-.918-.117-1.703-.35-2.355-.226-.66-.556-1.163-.99-1.509-.427-.354-.946-.531-1.558-.531-.612 0-1.139.177-1.582.531-.434.346-.772.85-1.014 1.51-.233.651-.35 1.436-.35 2.354zM104.827 26.9c-1.98 0-3.686-.378-5.12-1.134a7.953 7.953 0 0 1-3.295-3.284c-.765-1.433-1.147-3.148-1.147-5.144 0-1.916.386-3.59 1.159-5.023a8.284 8.284 0 0 1 3.272-3.344c1.408-.797 3.07-1.195 4.986-1.195 1.401 0 2.669.217 3.803.652a7.968 7.968 0 0 1 2.91 1.895c.805.821 1.425 1.82 1.86 2.995.434 1.175.652 2.499.652 3.972v.545a1 1 0 0 1-1 1H98.341a1 1 0 0 1-1-1v-1.67a1 1 0 0 1 1-1h8.417c.558 0 1.034-.474.822-.99a2.458 2.458 0 0 0-.217-.41 2.617 2.617 0 0 0-1.051-.955c-.434-.233-.93-.35-1.485-.35-.539 0-1.034.117-1.485.35-.451.226-.813.54-1.087.942-.265.403-.406.873-.422 1.413v3.96c0 .596.125 1.127.374 1.594.25.467.608.833 1.075 1.098.466.266 1.03.399 1.69.399.459 0 .877-.065 1.256-.193.386-.13.716-.314.99-.556a2.37 2.37 0 0 0 .267-.288c.257-.33.614-.605 1.031-.605h4.215c.616 0 1.092.556.901 1.142a6.753 6.753 0 0 1-1.21 2.214c-.781.942-1.816 1.675-3.103 2.198-1.28.515-2.777.773-4.492.773zM116.946 26.563a1 1 0 0 1-1-1V9.017a1 1 0 0 1 1-1h4.472a1 1 0 0 1 1 1v2.417a.109.109 0 0 0 .215.027c.339-1.262.867-2.189 1.584-2.78.74-.604 1.606-.905 2.596-.905.29 0 .575.024.857.072l.11.016c.435.07.723.466.723.907v3.697c0 .612-.612 1.065-1.219.994a10.962 10.962 0 0 0-1.244-.084 3.5 3.5 0 0 0-1.763.447c-.515.29-.921.7-1.219 1.231-.298.523-.447 1.14-.447 1.847v8.66a1 1 0 0 1-1 1h-4.665zM131.008 26.563a1 1 0 0 1-1-1V9.017a1 1 0 0 1 1-1h4.665a1 1 0 0 1 1 1v16.546a1 1 0 0 1-1 1h-4.665zm2.398-21h-2.35a1 1 0 0 1-.999-1V1c0-.553.447-1 .999-1h4.569a1 1 0 0 1 1 1v2.043c0 .396.011.983.022 1.49a1.004 1.004 0 0 1-1.003 1.03h-2.238zM144.502 8.017a1 1 0 0 1 .904.574l1.553 3.3a1 1 0 0 0 1.801.019l1.655-3.337a1 1 0 0 1 .896-.556h4.324a1 1 0 0 1 .882 1.473l-3.925 7.316a.999.999 0 0 0 .01.963l4.108 7.303a1 1 0 0 1-.872 1.49h-4.258a.999.999 0 0 1-.882-.53l-1.961-3.68a1 1 0 0 0-1.771.012l-1.888 3.657a1.001 1.001 0 0 1-.889.541h-4.338a1 1 0 0 1-.87-1.493l4.145-7.302c.169-.297.174-.66.014-.962l-3.888-7.319a1 1 0 0 1 .883-1.469h4.367z" fill="#fff"/></svg>