<svg width="713" height="773" fill="none" xmlns="http://www.w3.org/2000/svg"><circle cx="324.5" cy="355.5" r="303.5" stroke="url(#a)" stroke-width="3" stroke-linecap="round" stroke-linejoin="round" stroke-dasharray="10 10"/><circle cx="324.5" cy="355.5" r="199.5" stroke="#E9E9E9" stroke-width="3" stroke-linecap="round" stroke-linejoin="round" stroke-dasharray="10 10"/><g filter="url(#b)"><path d="M45 368c0-19.33 15.67-35 35-35h482a4 4 0 0 1 4 4v321c0 19.33-15.67 35-35 35H49a4 4 0 0 1-4-4V368z" fill="#fff"/></g><path d="M83.666 642.742V657h-2.588v-11.24l-3.428 1.133v-2.09l5.723-2.061h.293zm14.2 5.928v2.392c0 1.094-.111 2.028-.333 2.803-.221.775-.54 1.41-.957 1.905a3.838 3.838 0 0 1-1.494 1.084 5.26 5.26 0 0 1-1.934.341 5.57 5.57 0 0 1-1.582-.215 4.022 4.022 0 0 1-1.318-.683 4.302 4.302 0 0 1-.996-1.192c-.273-.481-.485-1.057-.635-1.728-.143-.671-.215-1.442-.215-2.315v-2.392c0-1.094.111-2.025.332-2.793.228-.768.55-1.397.967-1.885a3.654 3.654 0 0 1 1.494-1.064c.58-.228 1.224-.342 1.934-.342.573 0 1.1.072 1.582.215.488.143.924.368 1.308.674.391.299.723.69.997 1.171.273.476.481 1.049.625 1.719.15.664.224 1.433.224 2.305zm-2.579 2.744v-3.105c0-.547-.032-1.023-.098-1.426a4.435 4.435 0 0 0-.263-1.045 2.064 2.064 0 0 0-.44-.693 1.612 1.612 0 0 0-.605-.401 2.16 2.16 0 0 0-.752-.127c-.339 0-.641.069-.908.205-.267.13-.492.339-.674.625-.182.287-.322.668-.42 1.143-.091.469-.137 1.042-.137 1.719v3.105c0 .547.03 1.025.088 1.436.065.41.156.761.274 1.054.123.293.27.534.439.723.176.182.378.319.606.41.227.085.478.127.751.127.346 0 .648-.068.909-.205.267-.137.491-.352.674-.645.182-.299.319-.686.41-1.162.097-.481.146-1.061.146-1.738zM157.654 654.969V657h-9.629v-1.738l4.62-4.991c.481-.546.862-1.022 1.142-1.425.28-.404.479-.769.596-1.094.124-.332.185-.648.185-.947 0-.437-.078-.817-.234-1.143a1.747 1.747 0 0 0-.684-.771c-.293-.183-.654-.274-1.084-.274-.475 0-.882.111-1.22.332a2.07 2.07 0 0 0-.762.899 3.242 3.242 0 0 0-.254 1.318h-2.588c0-.84.196-1.605.586-2.295a4.363 4.363 0 0 1 1.68-1.67c.729-.416 1.595-.625 2.597-.625.977 0 1.804.163 2.481.488.677.319 1.191.775 1.543 1.368.351.592.527 1.298.527 2.119 0 .456-.075.905-.224 1.347-.15.443-.362.883-.635 1.319-.267.429-.586.866-.957 1.308-.371.443-.785.896-1.24 1.358l-2.774 3.086h6.328zm11.211-6.299v2.392c0 1.094-.11 2.028-.332 2.803-.221.775-.54 1.41-.957 1.905a3.836 3.836 0 0 1-1.494 1.084 5.26 5.26 0 0 1-1.934.341 5.576 5.576 0 0 1-1.582-.215 4.026 4.026 0 0 1-1.318-.683 4.306 4.306 0 0 1-.996-1.192c-.273-.481-.485-1.057-.635-1.728-.143-.671-.215-1.442-.215-2.315v-2.392c0-1.094.111-2.025.332-2.793.228-.768.551-1.397.967-1.885a3.658 3.658 0 0 1 1.494-1.064 5.243 5.243 0 0 1 1.934-.342c.573 0 1.1.072 1.582.215.488.143.924.368 1.309.674.39.299.722.69.996 1.171.273.476.481 1.049.625 1.719.149.664.224 1.433.224 2.305zm-2.578 2.744v-3.105a8.96 8.96 0 0 0-.098-1.426 4.417 4.417 0 0 0-.263-1.045 2.059 2.059 0 0 0-.44-.693 1.603 1.603 0 0 0-.605-.401 2.162 2.162 0 0 0-.752-.127 1.97 1.97 0 0 0-.908.205c-.267.13-.492.339-.674.625-.182.287-.322.668-.42 1.143-.091.469-.137 1.042-.137 1.719v3.105c0 .547.03 1.025.088 1.436.065.41.156.761.274 1.054.123.293.27.534.439.723.176.182.378.319.605.41.228.085.479.127.752.127.345 0 .648-.068.909-.205a1.72 1.72 0 0 0 .673-.645c.183-.299.319-.686.411-1.162.097-.481.146-1.061.146-1.738zM221.848 648.748h1.455c.514 0 .937-.088 1.269-.264.339-.182.589-.429.752-.742.169-.319.254-.687.254-1.103 0-.41-.075-.765-.224-1.065a1.556 1.556 0 0 0-.684-.703c-.3-.169-.684-.254-1.152-.254-.378 0-.726.075-1.045.225-.313.15-.563.364-.752.644-.183.274-.274.603-.274.987h-2.588c0-.769.202-1.442.606-2.022.41-.586.963-1.045 1.66-1.377.697-.332 1.475-.498 2.334-.498.937 0 1.758.156 2.461.469.71.306 1.26.758 1.65 1.357.397.599.596 1.341.596 2.227 0 .423-.101.846-.303 1.269a3.466 3.466 0 0 1-.869 1.133c-.377.332-.843.602-1.396.811-.547.202-1.175.303-1.885.303h-1.865v-1.397zm0 1.992v-1.377h1.865c.801 0 1.494.095 2.08.283.592.183 1.081.443 1.465.782.384.332.667.719.849 1.162.189.443.284.918.284 1.426 0 .664-.124 1.256-.371 1.777-.248.514-.596.95-1.045 1.309a4.714 4.714 0 0 1-1.563.82 6.656 6.656 0 0 1-1.943.273 6.428 6.428 0 0 1-1.768-.244 5.025 5.025 0 0 1-1.533-.752 3.701 3.701 0 0 1-1.084-1.269c-.267-.515-.4-1.11-.4-1.787h2.587c0 .39.095.739.284 1.045.195.305.462.546.8.722.346.169.733.254 1.163.254.475 0 .882-.085 1.22-.254.345-.176.609-.423.791-.742.183-.326.274-.713.274-1.162 0-.534-.101-.967-.303-1.299a1.786 1.786 0 0 0-.869-.732c-.371-.157-.814-.235-1.328-.235h-1.455zm18.017-2.07v2.392c0 1.094-.11 2.028-.332 2.803-.221.775-.54 1.41-.957 1.905a3.836 3.836 0 0 1-1.494 1.084 5.26 5.26 0 0 1-1.934.341 5.576 5.576 0 0 1-1.582-.215 4.026 4.026 0 0 1-1.318-.683 4.306 4.306 0 0 1-.996-1.192c-.273-.481-.485-1.057-.635-1.728-.143-.671-.215-1.442-.215-2.315v-2.392c0-1.094.111-2.025.332-2.793.228-.768.551-1.397.967-1.885a3.658 3.658 0 0 1 1.494-1.064 5.243 5.243 0 0 1 1.934-.342c.573 0 1.1.072 1.582.215.488.143.924.368 1.309.674.39.299.722.69.996 1.171.273.476.481 1.049.625 1.719.149.664.224 1.433.224 2.305zm-2.578 2.744v-3.105a8.96 8.96 0 0 0-.098-1.426 4.417 4.417 0 0 0-.263-1.045 2.059 2.059 0 0 0-.44-.693 1.603 1.603 0 0 0-.605-.401 2.162 2.162 0 0 0-.752-.127 1.97 1.97 0 0 0-.908.205c-.267.13-.492.339-.674.625-.182.287-.322.668-.42 1.143-.091.469-.137 1.042-.137 1.719v3.105c0 .547.03 1.025.088 1.436.065.41.156.761.274 1.054.123.293.27.534.439.723.176.182.378.319.605.41.228.085.479.127.752.127.345 0 .648-.068.909-.205a1.72 1.72 0 0 0 .673-.645c.183-.299.319-.686.411-1.162.097-.481.146-1.061.146-1.738zM299.898 651.814v2.032h-10.244l-.107-1.563 6.025-9.502h2.061l-2.227 3.78-3.232 5.253h7.724zm-1.689-9.033V657h-2.588v-14.219h2.588zm12.656 5.889v2.392c0 1.094-.11 2.028-.332 2.803-.221.775-.54 1.41-.957 1.905a3.836 3.836 0 0 1-1.494 1.084 5.26 5.26 0 0 1-1.934.341 5.576 5.576 0 0 1-1.582-.215 4.026 4.026 0 0 1-1.318-.683 4.306 4.306 0 0 1-.996-1.192c-.273-.481-.485-1.057-.635-1.728-.143-.671-.215-1.442-.215-2.315v-2.392c0-1.094.111-2.025.332-2.793.228-.768.551-1.397.967-1.885a3.658 3.658 0 0 1 1.494-1.064 5.243 5.243 0 0 1 1.934-.342c.573 0 1.1.072 1.582.215.488.143.924.368 1.309.674.39.299.722.69.996 1.171.273.476.481 1.049.625 1.719.149.664.224 1.433.224 2.305zm-2.578 2.744v-3.105a8.96 8.96 0 0 0-.098-1.426 4.417 4.417 0 0 0-.263-1.045 2.059 2.059 0 0 0-.44-.693 1.603 1.603 0 0 0-.605-.401 2.162 2.162 0 0 0-.752-.127 1.97 1.97 0 0 0-.908.205c-.267.13-.492.339-.674.625-.182.287-.322.668-.42 1.143-.091.469-.137 1.042-.137 1.719v3.105c0 .547.03 1.025.088 1.436.065.41.156.761.274 1.054.123.293.27.534.439.723.176.182.378.319.605.41.228.085.479.127.752.127.345 0 .648-.068.909-.205a1.72 1.72 0 0 0 .673-.645c.183-.299.319-.686.411-1.162.097-.481.146-1.061.146-1.738zM363.584 650.457l-2.061-.498.791-7.178h7.823v2.139h-5.684l-.371 3.32c.202-.123.495-.247.879-.371.391-.13.83-.195 1.318-.195.677 0 1.283.111 1.817.332.534.215.986.527 1.357.937.378.411.661.912.85 1.504.195.586.293 1.25.293 1.992 0 .651-.098 1.263-.293 1.836a4.347 4.347 0 0 1-.869 1.514 4.14 4.14 0 0 1-1.475 1.035c-.592.248-1.289.371-2.09.371a5.828 5.828 0 0 1-1.748-.263 4.93 4.93 0 0 1-1.494-.791 4.02 4.02 0 0 1-1.065-1.289c-.26-.508-.403-1.091-.429-1.748h2.549c.045.436.162.807.351 1.113.189.306.436.54.742.703.313.163.674.244 1.084.244.371 0 .69-.068.957-.205a1.85 1.85 0 0 0 .674-.596c.176-.254.306-.553.391-.898.084-.345.127-.723.127-1.133 0-.397-.049-.758-.147-1.084a2.34 2.34 0 0 0-.449-.859 1.995 1.995 0 0 0-.762-.557 2.63 2.63 0 0 0-1.054-.195c-.541 0-.957.081-1.25.244a3.55 3.55 0 0 0-.762.576zm18.281-1.787v2.392c0 1.094-.11 2.028-.332 2.803-.221.775-.54 1.41-.957 1.905a3.836 3.836 0 0 1-1.494 1.084 5.26 5.26 0 0 1-1.934.341 5.576 5.576 0 0 1-1.582-.215 4.026 4.026 0 0 1-1.318-.683 4.306 4.306 0 0 1-.996-1.192c-.273-.481-.485-1.057-.635-1.728-.143-.671-.215-1.442-.215-2.315v-2.392c0-1.094.111-2.025.332-2.793.228-.768.551-1.397.967-1.885a3.658 3.658 0 0 1 1.494-1.064 5.243 5.243 0 0 1 1.934-.342c.573 0 1.1.072 1.582.215.488.143.924.368 1.309.674.39.299.722.69.996 1.171.273.476.481 1.049.625 1.719.149.664.224 1.433.224 2.305zm-2.578 2.744v-3.105a8.96 8.96 0 0 0-.098-1.426 4.417 4.417 0 0 0-.263-1.045 2.059 2.059 0 0 0-.44-.693 1.603 1.603 0 0 0-.605-.401 2.162 2.162 0 0 0-.752-.127 1.97 1.97 0 0 0-.908.205c-.267.13-.492.339-.674.625-.182.287-.322.668-.42 1.143-.091.469-.137 1.042-.137 1.719v3.105c0 .547.03 1.025.088 1.436.065.41.156.761.274 1.054.123.293.27.534.439.723.176.182.378.319.605.41.228.085.479.127.752.127.345 0 .648-.068.909-.205a1.72 1.72 0 0 0 .673-.645c.183-.299.319-.686.411-1.162.097-.481.146-1.061.146-1.738zM439.203 642.664h.352v2.08h-.166c-.788 0-1.481.121-2.08.361a4.022 4.022 0 0 0-1.485 1.016 4.32 4.32 0 0 0-.888 1.533 5.872 5.872 0 0 0-.303 1.924v2.305c0 .54.055 1.015.166 1.426.117.403.277.745.478 1.025.209.273.45.478.723.615.28.137.586.205.918.205.332 0 .631-.068.898-.205.267-.137.495-.329.684-.576.195-.254.342-.55.439-.889.105-.338.157-.709.157-1.113a3.95 3.95 0 0 0-.147-1.103 2.752 2.752 0 0 0-.429-.889 1.877 1.877 0 0 0-.704-.596 1.992 1.992 0 0 0-.937-.215c-.456 0-.863.108-1.221.323a2.377 2.377 0 0 0-.849.82 2.231 2.231 0 0 0-.342 1.074l-.869-.43a4.408 4.408 0 0 1 .351-1.523c.209-.462.485-.866.83-1.211a3.704 3.704 0 0 1 1.241-.801 4.365 4.365 0 0 1 1.601-.283c.677 0 1.27.13 1.777.391.508.254.928.602 1.26 1.045.339.442.593.953.762 1.533.169.573.254 1.178.254 1.816a5.43 5.43 0 0 1-.332 1.914 4.533 4.533 0 0 1-.938 1.553c-.41.443-.905.788-1.484 1.035-.58.248-1.231.371-1.953.371-.762 0-1.446-.143-2.051-.429a4.607 4.607 0 0 1-1.543-1.192 5.37 5.37 0 0 1-.986-1.777 6.845 6.845 0 0 1-.342-2.197v-1.036c0-1.113.153-2.148.459-3.105a7.355 7.355 0 0 1 1.357-2.51 6.154 6.154 0 0 1 2.246-1.679c.892-.404 1.924-.606 3.096-.606zm13.662 6.006v2.392c0 1.094-.11 2.028-.332 2.803-.221.775-.54 1.41-.957 1.905a3.836 3.836 0 0 1-1.494 1.084 5.26 5.26 0 0 1-1.934.341 5.576 5.576 0 0 1-1.582-.215 4.026 4.026 0 0 1-1.318-.683 4.306 4.306 0 0 1-.996-1.192c-.273-.481-.485-1.057-.635-1.728-.143-.671-.215-1.442-.215-2.315v-2.392c0-1.094.111-2.025.332-2.793.228-.768.551-1.397.967-1.885a3.658 3.658 0 0 1 1.494-1.064 5.243 5.243 0 0 1 1.934-.342c.573 0 1.1.072 1.582.215.488.143.924.368 1.309.674.39.299.722.69.996 1.171.273.476.481 1.049.625 1.719.149.664.224 1.433.224 2.305zm-2.578 2.744v-3.105a8.96 8.96 0 0 0-.098-1.426 4.417 4.417 0 0 0-.263-1.045 2.059 2.059 0 0 0-.44-.693 1.603 1.603 0 0 0-.605-.401 2.162 2.162 0 0 0-.752-.127 1.97 1.97 0 0 0-.908.205c-.267.13-.492.339-.674.625-.182.287-.322.668-.42 1.143-.091.469-.137 1.042-.137 1.719v3.105c0 .547.03 1.025.088 1.436.065.41.156.761.274 1.054.123.293.27.534.439.723.176.182.378.319.605.41.228.085.479.127.752.127.345 0 .648-.068.909-.205a1.72 1.72 0 0 0 .673-.645c.183-.299.319-.686.411-1.162.097-.481.146-1.061.146-1.738zM512.576 642.781v1.407L506.99 657h-2.724l5.586-12.188h-7.227v-2.031h9.951zm11.289 5.889v2.392c0 1.094-.11 2.028-.332 2.803-.221.775-.54 1.41-.957 1.905a3.836 3.836 0 0 1-1.494 1.084 5.26 5.26 0 0 1-1.934.341 5.576 5.576 0 0 1-1.582-.215 4.026 4.026 0 0 1-1.318-.683 4.306 4.306 0 0 1-.996-1.192c-.273-.481-.485-1.057-.635-1.728-.143-.671-.215-1.442-.215-2.315v-2.392c0-1.094.111-2.025.332-2.793.228-.768.551-1.397.967-1.885a3.658 3.658 0 0 1 1.494-1.064 5.243 5.243 0 0 1 1.934-.342c.573 0 1.1.072 1.582.215.488.143.924.368 1.309.674.39.299.722.69.996 1.171.273.476.481 1.049.625 1.719.149.664.224 1.433.224 2.305zm-2.578 2.744v-3.105a8.96 8.96 0 0 0-.098-1.426 4.417 4.417 0 0 0-.263-1.045 2.059 2.059 0 0 0-.44-.693 1.603 1.603 0 0 0-.605-.401 2.162 2.162 0 0 0-.752-.127 1.97 1.97 0 0 0-.908.205c-.267.13-.492.339-.674.625-.182.287-.322.668-.42 1.143-.091.469-.137 1.042-.137 1.719v3.105c0 .547.03 1.025.088 1.436.065.41.156.761.274 1.054.123.293.27.534.439.723.176.182.378.319.605.41.228.085.479.127.752.127.345 0 .648-.068.909-.205a1.72 1.72 0 0 0 .673-.645c.183-.299.319-.686.411-1.162.097-.481.146-1.061.146-1.738z" fill="#A7A7A7"/><path d="M146.028 552.105C130.646 554.715 84.5 626 84.5 626h443V392s-43.069 87.634-55.375 89.289c-12.306 1.656-39.993-56.042-58.451-55.421-18.459.621-46.146 107.143-64.605 107.764-18.458.621-46.145-52.343-64.604-52.343-18.458 0-51.007 104.265-69.465 106.711-18.458 2.446-47.438-39.549-68.972-35.895z" fill="url(#c)" fill-opacity=".4"/><path d="M84 623s46.646-68.285 62.028-70.895C167.562 548.451 191 587.5 213.5 587.5c22.5 0 52.507-106.211 70.965-106.211 18.459 0 46.146 52.964 64.604 52.343 18.459-.621 46.146-107.143 64.605-107.764 18.458-.621 46.145 57.077 58.451 55.421C484.431 479.634 524.5 391.5 524.5 391.5" stroke="#20B9B0" stroke-width="6" stroke-linecap="round"/><path d="M150.5 500v126" stroke="#FF8181" stroke-width="2.2" stroke-linecap="round" stroke-dasharray="5 5"/><circle cx="150" cy="552.5" r="9.5" fill="#FF8181"/><circle cx="150" cy="552.5" r="5.5" fill="#FCDADA"/><rect x="112.5" y="493" width="79" height="31" rx="2" fill="#FF8181"/><path d="M137.154 512.969V515h-9.629v-1.738l4.62-4.991c.481-.546.862-1.022 1.142-1.425.28-.404.479-.769.596-1.094.124-.332.185-.648.185-.947 0-.437-.078-.817-.234-1.143a1.747 1.747 0 0 0-.684-.771c-.293-.183-.654-.274-1.084-.274-.475 0-.882.111-1.22.332a2.07 2.07 0 0 0-.762.899 3.242 3.242 0 0 0-.254 1.318h-2.588c0-.84.196-1.605.586-2.295a4.363 4.363 0 0 1 1.68-1.67c.729-.416 1.595-.625 2.597-.625.977 0 1.804.163 2.481.488.677.319 1.191.775 1.543 1.368.351.592.527 1.298.527 2.119 0 .456-.075.905-.224 1.347-.15.443-.362.883-.635 1.319-.267.429-.586.866-.957 1.308-.371.443-.785.896-1.24 1.358l-2.774 3.086h6.328zm11.67-3.155v2.032H138.58l-.107-1.563 6.025-9.502h2.061l-2.227 3.78-3.232 5.253h7.724zm-1.689-9.033V515h-2.588v-14.219h2.588zm3.486 12.959c0-.39.134-.719.4-.986.267-.267.629-.4 1.084-.4.456 0 .818.133 1.084.4.267.267.401.596.401.986 0 .384-.134.71-.401.977-.266.26-.628.39-1.084.39-.455 0-.817-.13-1.084-.39a1.333 1.333 0 0 1-.4-.977zm14.854-7.07v2.392c0 1.094-.111 2.028-.332 2.803-.222.775-.541 1.41-.957 1.905a3.839 3.839 0 0 1-1.495 1.084 5.258 5.258 0 0 1-1.933.341 5.566 5.566 0 0 1-1.582-.215 4.03 4.03 0 0 1-1.319-.683 4.306 4.306 0 0 1-.996-1.192c-.273-.481-.485-1.057-.634-1.728-.144-.671-.215-1.442-.215-2.315v-2.392c0-1.094.11-2.025.332-2.793.228-.768.55-1.397.967-1.885a3.645 3.645 0 0 1 1.494-1.064c.579-.228 1.224-.342 1.933-.342.573 0 1.101.072 1.582.215a3.78 3.78 0 0 1 1.309.674c.391.299.723.69.996 1.171.273.476.482 1.049.625 1.719.15.664.225 1.433.225 2.305zm-2.579 2.744v-3.105a9.09 9.09 0 0 0-.097-1.426 4.463 4.463 0 0 0-.264-1.045 2.073 2.073 0 0 0-.439-.693 1.614 1.614 0 0 0-.606-.401 2.158 2.158 0 0 0-.752-.127c-.338 0-.641.069-.908.205-.267.13-.491.339-.674.625-.182.287-.322.668-.42 1.143-.091.469-.136 1.042-.136 1.719v3.105c0 .547.029 1.025.088 1.436.065.41.156.761.273 1.054.124.293.27.534.439.723.176.182.378.319.606.41.228.085.478.127.752.127.345 0 .648-.068.908-.205.267-.137.492-.352.674-.645.182-.299.319-.686.41-1.162.098-.481.146-1.061.146-1.738zm14.024 1.699c0 .886-.208 1.634-.625 2.246-.41.606-.973 1.065-1.69 1.377-.709.306-1.516.459-2.421.459-.899 0-1.709-.153-2.432-.459a3.966 3.966 0 0 1-1.709-1.377c-.417-.612-.625-1.36-.625-2.246 0-.592.117-1.129.352-1.611.24-.482.572-.895.996-1.24a4.363 4.363 0 0 1 1.504-.801 6.071 6.071 0 0 1 1.894-.283c.912 0 1.725.166 2.441.498.723.325 1.29.784 1.7 1.377.41.586.615 1.273.615 2.06zm-2.598-.156c0-.456-.091-.85-.273-1.182a1.858 1.858 0 0 0-.752-.781 2.284 2.284 0 0 0-1.133-.273c-.436 0-.817.091-1.143.273a1.93 1.93 0 0 0-.751.781c-.176.332-.264.726-.264 1.182 0 .462.088.859.264 1.191.182.326.436.577.761.752.326.176.71.264 1.153.264.442 0 .823-.088 1.142-.264.319-.175.563-.426.733-.752.175-.332.263-.729.263-1.191zm2.285-6.426c0 .716-.188 1.354-.566 1.914-.378.554-.902.987-1.572 1.299-.664.313-1.426.469-2.285.469-.86 0-1.628-.156-2.305-.469-.671-.312-1.198-.745-1.582-1.299a3.341 3.341 0 0 1-.567-1.914c0-.846.193-1.562.577-2.148a3.647 3.647 0 0 1 1.572-1.348c.67-.306 1.432-.459 2.285-.459.866 0 1.634.153 2.305.459a3.58 3.58 0 0 1 1.572 1.348c.378.586.566 1.302.566 2.148zm-2.578.108a2.34 2.34 0 0 0-.224-1.055 1.671 1.671 0 0 0-.645-.713c-.273-.169-.605-.254-.996-.254-.378 0-.703.082-.976.244a1.62 1.62 0 0 0-.635.703c-.15.3-.225.658-.225 1.075 0 .41.075.768.225 1.074.149.306.361.547.635.723.279.169.611.253.996.253.384 0 .712-.084.986-.253.273-.176.485-.417.635-.723.149-.306.224-.664.224-1.074z" fill="#fff"/><path d="M414.5 403v223" stroke="#37D9D0" stroke-width="2.2" stroke-linecap="round" stroke-dasharray="5 5"/><rect x="374.5" y="375" width="79" height="33" rx="2" fill="#20B2AA"/><path d="M399.398 392.814v2.032h-10.244l-.107-1.563 6.025-9.502h2.061l-2.227 3.78-3.232 5.253h7.724zm-1.689-9.033V398h-2.588v-14.219h2.588zm12.676 10.332c0 .886-.209 1.634-.625 2.246-.41.606-.974 1.065-1.69 1.377-.709.306-1.517.459-2.422.459-.898 0-1.709-.153-2.431-.459a3.966 3.966 0 0 1-1.709-1.377c-.417-.612-.625-1.36-.625-2.246 0-.592.117-1.129.351-1.611.241-.482.573-.895.996-1.24a4.381 4.381 0 0 1 1.504-.801 6.082 6.082 0 0 1 1.895-.283c.911 0 1.725.166 2.441.498.723.325 1.289.784 1.7 1.377.41.586.615 1.273.615 2.06zm-2.598-.156c0-.456-.091-.85-.273-1.182a1.858 1.858 0 0 0-.752-.781 2.284 2.284 0 0 0-1.133-.273c-.436 0-.817.091-1.143.273a1.939 1.939 0 0 0-.752.781c-.175.332-.263.726-.263 1.182 0 .462.088.859.263 1.191.183.326.437.577.762.752.326.176.71.264 1.152.264.443 0 .824-.088 1.143-.264.319-.175.563-.426.732-.752.176-.332.264-.729.264-1.191zm2.285-6.426c0 .716-.189 1.354-.566 1.914-.378.554-.902.987-1.572 1.299-.664.313-1.426.469-2.286.469-.859 0-1.627-.156-2.304-.469-.671-.312-1.198-.745-1.582-1.299a3.341 3.341 0 0 1-.567-1.914c0-.846.192-1.562.576-2.148a3.656 3.656 0 0 1 1.573-1.348c.67-.306 1.432-.459 2.285-.459.866 0 1.634.153 2.305.459a3.58 3.58 0 0 1 1.572 1.348c.377.586.566 1.302.566 2.148zm-2.578.108a2.34 2.34 0 0 0-.224-1.055 1.671 1.671 0 0 0-.645-.713c-.273-.169-.605-.254-.996-.254-.378 0-.703.082-.977.244a1.625 1.625 0 0 0-.634.703c-.15.3-.225.658-.225 1.075 0 .41.075.768.225 1.074.149.306.361.547.634.723.28.169.612.253.996.253.385 0 .713-.084.987-.253.273-.176.485-.417.635-.723.149-.306.224-.664.224-1.074zm5.127 9.101c0-.39.134-.719.4-.986.267-.267.629-.4 1.084-.4.456 0 .818.133 1.084.4.267.267.401.596.401.986 0 .384-.134.71-.401.977-.266.26-.628.39-1.084.39-.455 0-.817-.13-1.084-.39a1.333 1.333 0 0 1-.4-.977zm14.854-7.07v2.392c0 1.094-.111 2.028-.332 2.803-.222.775-.541 1.41-.957 1.905a3.839 3.839 0 0 1-1.495 1.084 5.258 5.258 0 0 1-1.933.341 5.566 5.566 0 0 1-1.582-.215 4.03 4.03 0 0 1-1.319-.683 4.306 4.306 0 0 1-.996-1.192c-.273-.481-.485-1.057-.634-1.728-.144-.671-.215-1.442-.215-2.315v-2.392c0-1.094.11-2.025.332-2.793.228-.768.55-1.397.967-1.885a3.645 3.645 0 0 1 1.494-1.064c.579-.228 1.224-.342 1.933-.342.573 0 1.101.072 1.582.215a3.78 3.78 0 0 1 1.309.674c.391.299.723.69.996 1.171.273.476.482 1.049.625 1.719.15.664.225 1.433.225 2.305zm-2.579 2.744v-3.105a9.09 9.09 0 0 0-.097-1.426 4.463 4.463 0 0 0-.264-1.045 2.073 2.073 0 0 0-.439-.693 1.614 1.614 0 0 0-.606-.401 2.158 2.158 0 0 0-.752-.127c-.338 0-.641.069-.908.205-.267.13-.491.339-.674.625-.182.287-.322.668-.42 1.143-.091.469-.136 1.042-.136 1.719v3.105c0 .547.029 1.025.088 1.436.065.41.156.761.273 1.054.124.293.27.534.439.723.176.182.378.319.606.41.228.085.478.127.752.127.345 0 .648-.068.908-.205.267-.137.492-.352.674-.645.182-.299.319-.686.41-1.162.098-.481.146-1.061.146-1.738zm6.534 3.584h.185c.84 0 1.55-.107 2.129-.322.586-.215 1.058-.518 1.416-.908.365-.398.628-.87.791-1.416a6.273 6.273 0 0 0 .254-1.836v-2.578a5.53 5.53 0 0 0-.166-1.436 3.16 3.16 0 0 0-.469-1.045 1.907 1.907 0 0 0-.693-.625 1.792 1.792 0 0 0-.859-.215c-.339 0-.638.078-.899.235-.26.156-.482.371-.664.644a3.262 3.262 0 0 0-.41.928 4.42 4.42 0 0 0-.137 1.113c0 .378.043.739.127 1.084.091.345.225.651.401.918.182.267.41.479.683.635.274.15.593.224.957.224.345 0 .658-.065.938-.195.286-.137.534-.316.742-.537.208-.228.368-.478.478-.752a2.46 2.46 0 0 0 .196-.85l.908.391c0 .475-.101.944-.303 1.406a4.183 4.183 0 0 1-.83 1.26 4.228 4.228 0 0 1-1.23.899 3.508 3.508 0 0 1-1.514.332c-.671 0-1.263-.124-1.777-.372a3.698 3.698 0 0 1-1.299-1.025 4.675 4.675 0 0 1-.781-1.523 6.356 6.356 0 0 1-.264-1.856c0-.683.107-1.325.322-1.924a4.779 4.779 0 0 1 .928-1.591 4.32 4.32 0 0 1 1.484-1.084c.58-.267 1.231-.401 1.953-.401.749 0 1.416.147 2.002.44a4.361 4.361 0 0 1 1.494 1.22c.411.515.723 1.123.938 1.826a7.66 7.66 0 0 1 .332 2.305v.908c0 .879-.088 1.713-.264 2.5a7.914 7.914 0 0 1-.81 2.159 6.03 6.03 0 0 1-1.397 1.689c-.56.475-1.23.843-2.011 1.104-.775.253-1.661.38-2.657.38h-.224v-2.109z" fill="#fff"/><circle cx="414" cy="424.5" r="9.5" fill="#20B2AA"/><circle cx="414" cy="424.5" r="5.5" fill="#DAFCFA"/><g filter="url(#d)"><path d="M254 65c0-19.33 15.67-35 35-35h346a4 4 0 0 1 4 4v275c0 19.33-15.67 35-35 35H258a4 4 0 0 1-4-4V65z" fill="#fff"/></g><rect x="302" y="202" width="40" height="68" rx="6" fill="#FEE355"/><rect x="385" y="145" width="40" height="125" rx="6" fill="#FF8181"/><rect x="468" y="95" width="40" height="175" rx="6" fill="#81FF9C"/><rect x="551" y="56" width="40" height="214" rx="6" fill="#20CFC6"/><path d="M311.666 287.742V302h-2.588v-11.24l-3.428 1.133v-2.09l5.723-2.061h.293zm14.199 5.928v2.392c0 1.094-.11 2.028-.332 2.803-.221.775-.54 1.41-.957 1.905a3.836 3.836 0 0 1-1.494 1.084 5.26 5.26 0 0 1-1.934.341 5.576 5.576 0 0 1-1.582-.215 4.026 4.026 0 0 1-1.318-.683 4.306 4.306 0 0 1-.996-1.192c-.273-.481-.485-1.057-.635-1.728-.143-.671-.215-1.442-.215-2.315v-2.392c0-1.094.111-2.025.332-2.793.228-.768.551-1.397.967-1.885a3.658 3.658 0 0 1 1.494-1.064 5.243 5.243 0 0 1 1.934-.342c.573 0 1.1.072 1.582.215.488.143.924.368 1.309.674.39.299.722.69.996 1.171.273.476.481 1.049.625 1.719.149.664.224 1.433.224 2.305zm-2.578 2.744v-3.105a8.96 8.96 0 0 0-.098-1.426 4.417 4.417 0 0 0-.263-1.045 2.059 2.059 0 0 0-.44-.693 1.603 1.603 0 0 0-.605-.401 2.162 2.162 0 0 0-.752-.127 1.97 1.97 0 0 0-.908.205c-.267.13-.492.339-.674.625-.182.287-.322.668-.42 1.143-.091.469-.137 1.042-.137 1.719v3.105c0 .547.03 1.025.088 1.436.065.41.156.761.274 1.054.123.293.27.534.439.723.176.182.378.319.605.41.228.085.479.127.752.127.345 0 .648-.068.909-.205a1.72 1.72 0 0 0 .673-.645c.183-.299.319-.686.411-1.162.097-.481.146-1.061.146-1.738zm14.004-2.744v2.392c0 1.094-.111 2.028-.332 2.803-.221.775-.54 1.41-.957 1.905a3.843 3.843 0 0 1-1.494 1.084 5.263 5.263 0 0 1-1.934.341 5.571 5.571 0 0 1-1.582-.215 4.016 4.016 0 0 1-1.318-.683 4.306 4.306 0 0 1-.996-1.192c-.274-.481-.485-1.057-.635-1.728-.143-.671-.215-1.442-.215-2.315v-2.392c0-1.094.111-2.025.332-2.793.228-.768.55-1.397.967-1.885a3.658 3.658 0 0 1 1.494-1.064 5.243 5.243 0 0 1 1.934-.342c.573 0 1.1.072 1.582.215.488.143.924.368 1.308.674.391.299.723.69.996 1.171.274.476.482 1.049.625 1.719.15.664.225 1.433.225 2.305zm-2.578 2.744v-3.105a9.08 9.08 0 0 0-.098-1.426 4.417 4.417 0 0 0-.263-1.045 2.074 2.074 0 0 0-.44-.693 1.611 1.611 0 0 0-.605-.401 2.162 2.162 0 0 0-.752-.127c-.339 0-.642.069-.909.205a1.67 1.67 0 0 0-.673.625c-.183.287-.323.668-.42 1.143-.091.469-.137 1.042-.137 1.719v3.105c0 .547.029 1.025.088 1.436.065.41.156.761.273 1.054.124.293.271.534.44.723.176.182.377.319.605.41.228.085.479.127.752.127.345 0 .648-.068.908-.205.267-.137.492-.352.674-.645.183-.299.319-.686.41-1.162.098-.481.147-1.061.147-1.738zM399.654 299.969V302h-9.629v-1.738l4.62-4.991c.481-.546.862-1.022 1.142-1.425.28-.404.479-.769.596-1.094.124-.332.185-.648.185-.947 0-.437-.078-.817-.234-1.143a1.747 1.747 0 0 0-.684-.771c-.293-.183-.654-.274-1.084-.274-.475 0-.882.111-1.22.332a2.07 2.07 0 0 0-.762.899 3.242 3.242 0 0 0-.254 1.318h-2.588c0-.84.196-1.605.586-2.295a4.363 4.363 0 0 1 1.68-1.67c.729-.416 1.595-.625 2.597-.625.977 0 1.804.163 2.481.488.677.319 1.191.775 1.543 1.368.351.592.527 1.298.527 2.119 0 .456-.075.905-.224 1.347-.15.443-.362.883-.635 1.319-.267.429-.586.866-.957 1.308-.371.443-.785.896-1.24 1.358l-2.774 3.086h6.328zm11.211-6.299v2.392c0 1.094-.11 2.028-.332 2.803-.221.775-.54 1.41-.957 1.905a3.836 3.836 0 0 1-1.494 1.084 5.26 5.26 0 0 1-1.934.341 5.576 5.576 0 0 1-1.582-.215 4.026 4.026 0 0 1-1.318-.683 4.306 4.306 0 0 1-.996-1.192c-.273-.481-.485-1.057-.635-1.728-.143-.671-.215-1.442-.215-2.315v-2.392c0-1.094.111-2.025.332-2.793.228-.768.551-1.397.967-1.885a3.658 3.658 0 0 1 1.494-1.064 5.243 5.243 0 0 1 1.934-.342c.573 0 1.1.072 1.582.215.488.143.924.368 1.309.674.39.299.722.69.996 1.171.273.476.481 1.049.625 1.719.149.664.224 1.433.224 2.305zm-2.578 2.744v-3.105a8.96 8.96 0 0 0-.098-1.426 4.417 4.417 0 0 0-.263-1.045 2.059 2.059 0 0 0-.44-.693 1.603 1.603 0 0 0-.605-.401 2.162 2.162 0 0 0-.752-.127 1.97 1.97 0 0 0-.908.205c-.267.13-.492.339-.674.625-.182.287-.322.668-.42 1.143-.091.469-.137 1.042-.137 1.719v3.105c0 .547.03 1.025.088 1.436.065.41.156.761.274 1.054.123.293.27.534.439.723.176.182.378.319.605.41.228.085.479.127.752.127.345 0 .648-.068.909-.205a1.72 1.72 0 0 0 .673-.645c.183-.299.319-.686.411-1.162.097-.481.146-1.061.146-1.738zm14.004-2.744v2.392c0 1.094-.111 2.028-.332 2.803-.221.775-.54 1.41-.957 1.905a3.843 3.843 0 0 1-1.494 1.084 5.263 5.263 0 0 1-1.934.341 5.571 5.571 0 0 1-1.582-.215 4.016 4.016 0 0 1-1.318-.683 4.306 4.306 0 0 1-.996-1.192c-.274-.481-.485-1.057-.635-1.728-.143-.671-.215-1.442-.215-2.315v-2.392c0-1.094.111-2.025.332-2.793.228-.768.55-1.397.967-1.885a3.658 3.658 0 0 1 1.494-1.064 5.243 5.243 0 0 1 1.934-.342c.573 0 1.1.072 1.582.215.488.143.924.368 1.308.674.391.299.723.69.996 1.171.274.476.482 1.049.625 1.719.15.664.225 1.433.225 2.305zm-2.578 2.744v-3.105a9.08 9.08 0 0 0-.098-1.426 4.417 4.417 0 0 0-.263-1.045 2.074 2.074 0 0 0-.44-.693 1.611 1.611 0 0 0-.605-.401 2.162 2.162 0 0 0-.752-.127c-.339 0-.642.069-.909.205a1.67 1.67 0 0 0-.673.625c-.183.287-.323.668-.42 1.143-.091.469-.137 1.042-.137 1.719v3.105c0 .547.029 1.025.088 1.436.065.41.156.761.273 1.054.124.293.271.534.44.723.176.182.377.319.605.41.228.085.479.127.752.127.345 0 .648-.068.908-.205.267-.137.492-.352.674-.645.183-.299.319-.686.41-1.162.098-.481.147-1.061.147-1.738zM473.848 293.748h1.455c.514 0 .937-.088 1.269-.264.339-.182.589-.429.752-.742.169-.319.254-.687.254-1.103 0-.41-.075-.765-.224-1.065a1.556 1.556 0 0 0-.684-.703c-.3-.169-.684-.254-1.152-.254-.378 0-.726.075-1.045.225-.313.15-.563.364-.752.644-.183.274-.274.603-.274.987h-2.588c0-.769.202-1.442.606-2.022.41-.586.963-1.045 1.66-1.377.697-.332 1.475-.498 2.334-.498.937 0 1.758.156 2.461.469.71.306 1.26.758 1.65 1.357.397.599.596 1.341.596 2.227 0 .423-.101.846-.303 1.269a3.466 3.466 0 0 1-.869 1.133c-.377.332-.843.602-1.396.811-.547.202-1.175.303-1.885.303h-1.865v-1.397zm0 1.992v-1.377h1.865c.801 0 1.494.095 2.08.283.592.183 1.081.443 1.465.782.384.332.667.719.849 1.162.189.443.284.918.284 1.426 0 .664-.124 1.256-.371 1.777-.248.514-.596.95-1.045 1.309a4.714 4.714 0 0 1-1.563.82 6.656 6.656 0 0 1-1.943.273 6.428 6.428 0 0 1-1.768-.244 5.025 5.025 0 0 1-1.533-.752 3.701 3.701 0 0 1-1.084-1.269c-.267-.515-.4-1.11-.4-1.787h2.587c0 .39.095.739.284 1.045.195.305.462.546.8.722.346.169.733.254 1.163.254.475 0 .882-.085 1.22-.254.345-.176.609-.423.791-.742.183-.326.274-.713.274-1.162 0-.534-.101-.967-.303-1.299a1.786 1.786 0 0 0-.869-.732c-.371-.157-.814-.235-1.328-.235h-1.455zm18.017-2.07v2.392c0 1.094-.11 2.028-.332 2.803-.221.775-.54 1.41-.957 1.905a3.836 3.836 0 0 1-1.494 1.084 5.26 5.26 0 0 1-1.934.341 5.576 5.576 0 0 1-1.582-.215 4.026 4.026 0 0 1-1.318-.683 4.306 4.306 0 0 1-.996-1.192c-.273-.481-.485-1.057-.635-1.728-.143-.671-.215-1.442-.215-2.315v-2.392c0-1.094.111-2.025.332-2.793.228-.768.551-1.397.967-1.885a3.658 3.658 0 0 1 1.494-1.064 5.243 5.243 0 0 1 1.934-.342c.573 0 1.1.072 1.582.215.488.143.924.368 1.309.674.39.299.722.69.996 1.171.273.476.481 1.049.625 1.719.149.664.224 1.433.224 2.305zm-2.578 2.744v-3.105a8.96 8.96 0 0 0-.098-1.426 4.417 4.417 0 0 0-.263-1.045 2.059 2.059 0 0 0-.44-.693 1.603 1.603 0 0 0-.605-.401 2.162 2.162 0 0 0-.752-.127 1.97 1.97 0 0 0-.908.205c-.267.13-.492.339-.674.625-.182.287-.322.668-.42 1.143-.091.469-.137 1.042-.137 1.719v3.105c0 .547.03 1.025.088 1.436.065.41.156.761.274 1.054.123.293.27.534.439.723.176.182.378.319.605.41.228.085.479.127.752.127.345 0 .648-.068.909-.205a1.72 1.72 0 0 0 .673-.645c.183-.299.319-.686.411-1.162.097-.481.146-1.061.146-1.738zm14.004-2.744v2.392c0 1.094-.111 2.028-.332 2.803-.221.775-.54 1.41-.957 1.905a3.843 3.843 0 0 1-1.494 1.084 5.263 5.263 0 0 1-1.934.341 5.571 5.571 0 0 1-1.582-.215 4.016 4.016 0 0 1-1.318-.683 4.306 4.306 0 0 1-.996-1.192c-.274-.481-.485-1.057-.635-1.728-.143-.671-.215-1.442-.215-2.315v-2.392c0-1.094.111-2.025.332-2.793.228-.768.55-1.397.967-1.885a3.658 3.658 0 0 1 1.494-1.064 5.243 5.243 0 0 1 1.934-.342c.573 0 1.1.072 1.582.215.488.143.924.368 1.308.674.391.299.723.69.996 1.171.274.476.482 1.049.625 1.719.15.664.225 1.433.225 2.305zm-2.578 2.744v-3.105a9.08 9.08 0 0 0-.098-1.426 4.417 4.417 0 0 0-.263-1.045 2.074 2.074 0 0 0-.44-.693 1.611 1.611 0 0 0-.605-.401 2.162 2.162 0 0 0-.752-.127c-.339 0-.642.069-.909.205a1.67 1.67 0 0 0-.673.625c-.183.287-.323.668-.42 1.143-.091.469-.137 1.042-.137 1.719v3.105c0 .547.029 1.025.088 1.436.065.41.156.761.273 1.054.124.293.271.534.44.723.176.182.377.319.605.41.228.085.479.127.752.127.345 0 .648-.068.908-.205.267-.137.492-.352.674-.645.183-.299.319-.686.41-1.162.098-.481.147-1.061.147-1.738zM561.898 296.814v2.032h-10.244l-.107-1.563 6.025-9.502h2.061l-2.227 3.78-3.232 5.253h7.724zm-1.689-9.033V302h-2.588v-14.219h2.588zm12.656 5.889v2.392c0 1.094-.11 2.028-.332 2.803-.221.775-.54 1.41-.957 1.905a3.836 3.836 0 0 1-1.494 1.084 5.26 5.26 0 0 1-1.934.341 5.576 5.576 0 0 1-1.582-.215 4.026 4.026 0 0 1-1.318-.683 4.306 4.306 0 0 1-.996-1.192c-.273-.481-.485-1.057-.635-1.728-.143-.671-.215-1.442-.215-2.315v-2.392c0-1.094.111-2.025.332-2.793.228-.768.551-1.397.967-1.885a3.658 3.658 0 0 1 1.494-1.064 5.243 5.243 0 0 1 1.934-.342c.573 0 1.1.072 1.582.215.488.143.924.368 1.309.674.39.299.722.69.996 1.171.273.476.481 1.049.625 1.719.149.664.224 1.433.224 2.305zm-2.578 2.744v-3.105a8.96 8.96 0 0 0-.098-1.426 4.417 4.417 0 0 0-.263-1.045 2.059 2.059 0 0 0-.44-.693 1.603 1.603 0 0 0-.605-.401 2.162 2.162 0 0 0-.752-.127 1.97 1.97 0 0 0-.908.205c-.267.13-.492.339-.674.625-.182.287-.322.668-.42 1.143-.091.469-.137 1.042-.137 1.719v3.105c0 .547.03 1.025.088 1.436.065.41.156.761.274 1.054.123.293.27.534.439.723.176.182.378.319.605.41.228.085.479.127.752.127.345 0 .648-.068.909-.205a1.72 1.72 0 0 0 .673-.645c.183-.299.319-.686.411-1.162.097-.481.146-1.061.146-1.738zm14.004-2.744v2.392c0 1.094-.111 2.028-.332 2.803-.221.775-.54 1.41-.957 1.905a3.843 3.843 0 0 1-1.494 1.084 5.263 5.263 0 0 1-1.934.341 5.571 5.571 0 0 1-1.582-.215 4.016 4.016 0 0 1-1.318-.683 4.306 4.306 0 0 1-.996-1.192c-.274-.481-.485-1.057-.635-1.728-.143-.671-.215-1.442-.215-2.315v-2.392c0-1.094.111-2.025.332-2.793.228-.768.55-1.397.967-1.885a3.658 3.658 0 0 1 1.494-1.064 5.243 5.243 0 0 1 1.934-.342c.573 0 1.1.072 1.582.215.488.143.924.368 1.308.674.391.299.723.69.996 1.171.274.476.482 1.049.625 1.719.15.664.225 1.433.225 2.305zm-2.578 2.744v-3.105a9.08 9.08 0 0 0-.098-1.426 4.417 4.417 0 0 0-.263-1.045 2.074 2.074 0 0 0-.44-.693 1.611 1.611 0 0 0-.605-.401 2.162 2.162 0 0 0-.752-.127c-.339 0-.642.069-.909.205a1.67 1.67 0 0 0-.673.625c-.183.287-.323.668-.42 1.143-.091.469-.137 1.042-.137 1.719v3.105c0 .547.029 1.025.088 1.436.065.41.156.761.273 1.054.124.293.271.534.44.723.176.182.377.319.605.41.228.085.479.127.752.127.345 0 .648-.068.908-.205.267-.137.492-.352.674-.645.183-.299.319-.686.41-1.162.098-.481.147-1.061.147-1.738z" fill="#A7A7A7"/><path d="M303.199 52.36V68h-3.76V52.36h3.76zm6.257 6.498V68h-3.62V56.377h3.395l.225 2.481zm-.429 2.933-.849.022c0-.889.107-1.68.322-2.375.215-.701.519-1.296.913-1.783a3.882 3.882 0 0 1 1.408-1.106 4.28 4.28 0 0 1 1.836-.387c.538 0 1.028.079 1.472.236.451.158.838.412 1.16.763.33.351.58.816.752 1.397.179.572.269 1.282.269 2.127V68h-3.642v-7.326c0-.466-.064-.82-.193-1.064a1.03 1.03 0 0 0-.559-.515 2.5 2.5 0 0 0-.891-.14c-.373 0-.688.072-.946.215a1.683 1.683 0 0 0-.623.602 2.87 2.87 0 0 0-.333.891c-.064.344-.096.72-.096 1.128zm13.701 3.728 2.288-9.142h3.814L325.027 68h-2.256l-.043-2.481zm-1.353-9.142 2.255 9.142-.021 2.481h-2.267l-3.792-11.623h3.825zm14.227 11.838c-.945 0-1.79-.147-2.535-.44a5.51 5.51 0 0 1-1.89-1.236 5.475 5.475 0 0 1-1.171-1.805 5.897 5.897 0 0 1-.398-2.159v-.408c0-.852.118-1.64.355-2.363a5.52 5.52 0 0 1 1.052-1.912 4.71 4.71 0 0 1 1.751-1.268c.702-.308 1.519-.462 2.45-.462.823 0 1.561.133 2.213.398a4.503 4.503 0 0 1 1.654 1.138 4.896 4.896 0 0 1 1.042 1.794c.243.702.365 1.49.365 2.364v1.471h-9.496V61.06h5.962v-.279c.007-.386-.061-.716-.204-.988a1.406 1.406 0 0 0-.602-.623c-.265-.143-.587-.215-.967-.215-.393 0-.719.086-.977.258a1.746 1.746 0 0 0-.591.709 3.709 3.709 0 0 0-.29 1.02 8.397 8.397 0 0 0-.086 1.225v.408c0 .43.057.82.172 1.171.122.351.294.652.516.902.229.244.501.434.816.57.322.136.688.204 1.096.204a4.01 4.01 0 0 0 1.461-.28 2.926 2.926 0 0 0 1.235-.923l1.644 1.955c-.237.336-.573.662-1.01.977-.43.316-.946.573-1.547.774-.602.193-1.275.29-2.02.29zm12.671-3.48c0-.201-.068-.373-.205-.516-.128-.15-.358-.287-.687-.408-.329-.13-.791-.258-1.386-.387a9.887 9.887 0 0 1-1.6-.484 5.524 5.524 0 0 1-1.3-.73 3.229 3.229 0 0 1-.881-1.02 2.855 2.855 0 0 1-.312-1.354c0-.494.104-.96.312-1.396.215-.445.526-.835.935-1.171.415-.344.92-.613 1.514-.806.595-.2 1.271-.3 2.03-.3 1.046 0 1.948.16 2.708.483.759.315 1.342.759 1.75 1.331.416.566.624 1.222.624 1.966h-3.621c0-.293-.05-.544-.15-.752a.955.955 0 0 0-.462-.472c-.215-.115-.501-.172-.859-.172-.251 0-.48.046-.688.14-.2.093-.361.221-.483.386a.948.948 0 0 0-.183.58c0 .158.036.301.108.43.078.122.197.236.354.344.158.1.358.193.602.28.243.078.537.15.881.214.78.143 1.511.347 2.191.612.68.265 1.232.641 1.654 1.128.43.487.645 1.142.645 1.966 0 .516-.118.992-.355 1.429a3.55 3.55 0 0 1-1.02 1.138c-.444.323-.978.573-1.601.752-.623.18-1.325.269-2.105.269-1.11 0-2.048-.197-2.815-.591-.766-.401-1.346-.902-1.74-1.504-.387-.609-.58-1.225-.58-1.848h3.373c.014.358.1.652.258.881.165.23.383.398.655.505.272.108.587.161.945.161.33 0 .602-.046.817-.14a1.16 1.16 0 0 0 .505-.375.977.977 0 0 0 .172-.57zm11.531-8.358v2.514H352.8v-2.514h7.004zm-5.532-2.89h3.62v10.721c0 .308.036.548.107.72a.66.66 0 0 0 .366.354c.179.065.415.097.709.097.207 0 .379-.004.515-.01.136-.015.265-.033.387-.055v2.59c-.308.1-.63.175-.967.225a6.39 6.39 0 0 1-1.074.086c-.773 0-1.436-.122-1.987-.365a2.586 2.586 0 0 1-1.246-1.15c-.287-.523-.43-1.203-.43-2.04V53.486zm10.844 5.35V68h-3.62V56.377h3.394l.226 2.46zm-.441 2.954-.827.022c0-.817.097-1.569.29-2.256.194-.688.48-1.286.86-1.794a3.951 3.951 0 0 1 1.396-1.182c.559-.28 1.203-.419 1.934-.419.508 0 .97.079 1.386.236.415.15.773.39 1.074.72.301.322.53.745.687 1.268.165.515.247 1.135.247 1.858V68h-3.62v-7.294c0-.494-.057-.867-.172-1.117-.107-.25-.265-.42-.472-.505a1.998 1.998 0 0 0-.763-.129c-.315 0-.598.072-.849.215-.25.143-.465.344-.644.602-.172.25-.305.547-.398.891-.086.344-.129.72-.129 1.128zm6.639 0-1.01.022c0-.817.09-1.569.269-2.256a5.515 5.515 0 0 1 .827-1.794 3.852 3.852 0 0 1 1.386-1.182c.551-.28 1.192-.419 1.923-.419.53 0 1.017.079 1.461.236.444.158.827.412 1.149.763.322.351.573.816.752 1.397.179.572.269 1.282.269 2.127V68h-3.631v-7.315c0-.48-.058-.842-.172-1.085-.108-.251-.265-.42-.473-.505a1.803 1.803 0 0 0-.741-.14 1.77 1.77 0 0 0-.892.215c-.25.143-.462.344-.633.602a2.71 2.71 0 0 0-.366.891c-.078.344-.118.72-.118 1.128zm14.948 6.424c-.946 0-1.791-.147-2.535-.44a5.523 5.523 0 0 1-1.891-1.236 5.475 5.475 0 0 1-1.171-1.805 5.896 5.896 0 0 1-.397-2.159v-.408c0-.852.118-1.64.354-2.363a5.506 5.506 0 0 1 1.053-1.912 4.694 4.694 0 0 1 1.751-1.268c.702-.308 1.518-.462 2.449-.462.824 0 1.561.133 2.213.398a4.495 4.495 0 0 1 1.654 1.138 4.896 4.896 0 0 1 1.042 1.794c.244.702.365 1.49.365 2.364v1.471h-9.496V61.06h5.962v-.279c.007-.386-.061-.716-.204-.988a1.404 1.404 0 0 0-.601-.623c-.265-.143-.588-.215-.967-.215-.394 0-.72.086-.978.258-.25.172-.447.408-.591.709a3.744 3.744 0 0 0-.29 1.02 8.397 8.397 0 0 0-.086 1.225v.408c0 .43.058.82.172 1.171.122.351.294.652.516.902.229.244.501.434.816.57a2.8 2.8 0 0 0 1.096.204 4.01 4.01 0 0 0 1.461-.28c.48-.186.892-.494 1.235-.923l1.644 1.955c-.236.336-.573.662-1.01.977a5.58 5.58 0 0 1-1.547.774c-.601.193-1.275.29-2.019.29zm10.135-9.357V68h-3.62V56.377h3.394l.226 2.481zm-.43 2.933-.849.022c0-.889.108-1.68.323-2.375.215-.701.519-1.296.913-1.783a3.887 3.887 0 0 1 1.407-1.106 4.284 4.284 0 0 1 1.837-.387c.537 0 1.028.079 1.472.236.451.158.837.412 1.16.763.329.351.58.816.752 1.397.179.572.268 1.282.268 2.127V68h-3.641v-7.326c0-.466-.065-.82-.194-1.064a1.032 1.032 0 0 0-.558-.515 2.51 2.51 0 0 0-.892-.14c-.372 0-.687.072-.945.215a1.668 1.668 0 0 0-.623.602c-.151.25-.262.547-.333.891-.065.344-.097.72-.097 1.128zm15.635-5.414v2.514h-7.004v-2.514h7.004zm-5.532-2.89h3.62v10.721c0 .308.036.548.107.72a.66.66 0 0 0 .366.354c.179.065.415.097.709.097.207 0 .379-.004.515-.01.136-.015.265-.033.387-.055v2.59c-.308.1-.63.175-.967.225a6.398 6.398 0 0 1-1.074.086c-.774 0-1.436-.122-1.987-.365a2.586 2.586 0 0 1-1.246-1.15c-.287-.523-.43-1.203-.43-2.04V53.486zm13.282 11.247c0-.2-.068-.372-.204-.515-.129-.15-.358-.287-.687-.408-.33-.13-.792-.258-1.386-.387a9.93 9.93 0 0 1-1.601-.484 5.517 5.517 0 0 1-1.299-.73 3.229 3.229 0 0 1-.881-1.02 2.855 2.855 0 0 1-.312-1.354c0-.494.104-.96.312-1.396a3.47 3.47 0 0 1 .934-1.171 4.568 4.568 0 0 1 1.515-.806c.594-.2 1.271-.3 2.03-.3 1.046 0 1.948.16 2.707.483.759.315 1.343.759 1.751 1.331.416.566.623 1.222.623 1.966h-3.62c0-.293-.05-.544-.15-.752a.955.955 0 0 0-.462-.472c-.215-.115-.501-.172-.86-.172-.25 0-.479.046-.687.14a1.224 1.224 0 0 0-.483.386.948.948 0 0 0-.183.58c0 .158.036.301.107.43.079.122.197.236.355.344.157.1.358.193.601.28.244.078.538.15.881.214.781.143 1.511.347 2.192.612.68.265 1.231.641 1.654 1.128.43.487.645 1.142.645 1.966 0 .516-.119.992-.355 1.429a3.55 3.55 0 0 1-1.02 1.138c-.444.323-.978.573-1.601.752-.623.18-1.325.269-2.106.269-1.11 0-2.048-.197-2.814-.591-.766-.401-1.346-.902-1.74-1.504-.387-.609-.58-1.225-.58-1.848h3.373c.014.358.1.652.258.881.164.23.383.398.655.505.272.108.587.161.945.161.33 0 .602-.046.817-.14.222-.092.39-.218.504-.375a.97.97 0 0 0 .172-.57z" fill="#92BBB9" fill-opacity=".8"/><g filter="url(#e)"><circle cx="115.368" cy="128.368" r="34" transform="rotate(-6 115.368 128.368)" fill="#FF8181"/></g><g filter="url(#f)"><circle cx="621.5" cy="417.5" r="27.5" fill="#81FE9C"/></g><path d="m620.064 428.037 2.281-21.698 1.39.146-2.281 21.698-1.39-.146zm5.56-14.335c-.001-.749-.274-1.36-.818-1.834-.539-.474-1.274-.76-2.207-.858-.655-.069-1.228-.029-1.718.12-.489.148-.876.379-1.161.692a1.966 1.966 0 0 0-.503 1.121c-.038.361.011.684.147.966.141.284.346.534.615.751.269.211.572.397.91.558.337.161.679.303 1.026.425l1.585.578c.639.221 1.248.494 1.825.817a6.704 6.704 0 0 1 1.533 1.155c.444.447.778.965 1.002 1.554.223.589.296 1.26.217 2.011-.107 1.017-.461 1.886-1.062 2.605-.601.714-1.416 1.237-2.445 1.568-1.022.327-2.229.417-3.619.271-1.35-.142-2.501-.474-3.452-.997-.944-.522-1.654-1.213-2.13-2.074-.469-.861-.666-1.87-.59-3.028l3.094.326c-.018.609.115 1.131.401 1.567.285.436.681.78 1.185 1.033a5.1 5.1 0 0 0 1.749.484c.684.072 1.293.033 1.829-.116.542-.155.979-.4 1.311-.737a2.1 2.1 0 0 0 .587-1.258c.042-.453-.052-.839-.281-1.161-.228-.326-.567-.613-1.015-.86-.442-.253-.965-.49-1.57-.714l-1.922-.716c-1.391-.518-2.462-1.193-3.215-2.026-.746-.838-1.053-1.879-.923-3.122.108-1.023.479-1.89 1.113-2.6.641-.71 1.463-1.226 2.468-1.549 1.006-.328 2.116-.429 3.331-.301 1.232.13 2.289.458 3.171.985.887.521 1.557 1.189 2.009 2.002.452.807.635 1.701.549 2.68l-3.026-.318z" fill="#fff"/><g filter="url(#g)"><circle cx="143" cy="291" r="24" transform="rotate(-6 143 291)" fill="#46D9D1"/></g><g clip-path="url(#h)" fill="#fff"><path d="M149.713 291H145a2 2 0 0 1-2-2v-4.726a3 3 0 0 0-1.166-2.383 2.87 2.87 0 0 0-2.481-.534c-5.879 1.46-9.463 7.409-8.003 13.289a10.968 10.968 0 0 0 8.556 8.125 11 11 0 0 0 12.734-8.114 2.875 2.875 0 0 0-.533-2.485 3.056 3.056 0 0 0-2.394-1.172z"/><path d="M154.651 286.446a9.911 9.911 0 0 0-1.011-2.422 10.09 10.09 0 0 0-6.058-4.652c-.168-.045-.544-.072-.544-.072-.135 0-.713 0-1.171.371-.673.53-.779 1.132-.789 1.179a2.013 2.013 0 0 0-.054.45v4.7a3 3 0 0 0 3 3h4.719a1.96 1.96 0 0 0 1.586-.8 2.04 2.04 0 0 0 .4-1.281 2.106 2.106 0 0 0-.078-.473z"/></g><path d="m129.835 128.4-13.027 9.805-14.78-6.882a1.334 1.334 0 0 0-1.125 2.417l15.506 7.219a1.338 1.338 0 0 0 1.366-.143l13.666-10.285a1.336 1.336 0 0 0 .264-1.867 1.336 1.336 0 0 0-1.867-.264h-.003z" fill="#fff"/><path d="m99.776 127.057 14.074 6.553a3.964 3.964 0 0 0 4.06-.427l12.404-9.336a1.33 1.33 0 0 0-.239-2.272l-14.074-6.553a3.964 3.964 0 0 0-4.06.427l-12.404 9.335a1.337 1.337 0 0 0-.283 1.839c.133.187.313.337.522.434z" fill="#fff"/><defs><filter id="b" x="0" y="293" width="641" height="480" filterUnits="userSpaceOnUse" color-interpolation-filters="sRGB"><feFlood flood-opacity="0" result="BackgroundImageFix"/><feColorMatrix in="SourceAlpha" values="0 0 0 0 0 0 0 0 0 0 0 0 0 0 0 0 0 0 127 0" result="hardAlpha"/><feOffset dx="15" dy="20"/><feGaussianBlur stdDeviation="30"/><feComposite in2="hardAlpha" operator="out"/><feColorMatrix values="0 0 0 0 0 0 0 0 0 0 0 0 0 0 0 0 0 0 0.08 0"/><feBlend in2="BackgroundImageFix" result="effect1_dropShadow_1_328"/><feBlend in="SourceGraphic" in2="effect1_dropShadow_1_328" result="shape"/></filter><filter id="d" x="208" y="0" width="505" height="434" filterUnits="userSpaceOnUse" color-interpolation-filters="sRGB"><feFlood flood-opacity="0" result="BackgroundImageFix"/><feColorMatrix in="SourceAlpha" values="0 0 0 0 0 0 0 0 0 0 0 0 0 0 0 0 0 0 127 0" result="hardAlpha"/><feOffset dx="14" dy="30"/><feGaussianBlur stdDeviation="30"/><feComposite in2="hardAlpha" operator="out"/><feColorMatrix values="0 0 0 0 0 0 0 0 0 0 0 0 0 0 0 0 0 0 0.12 0"/><feBlend in2="BackgroundImageFix" result="effect1_dropShadow_1_328"/><feBlend in="SourceGraphic" in2="effect1_dropShadow_1_328" result="shape"/></filter><filter id="e" x="61.365" y="84.365" width="108.006" height="108.005" filterUnits="userSpaceOnUse" color-interpolation-filters="sRGB"><feFlood flood-opacity="0" result="BackgroundImageFix"/><feColorMatrix in="SourceAlpha" values="0 0 0 0 0 0 0 0 0 0 0 0 0 0 0 0 0 0 127 0" result="hardAlpha"/><feOffset dy="10"/><feGaussianBlur stdDeviation="10"/><feComposite in2="hardAlpha" operator="out"/><feColorMatrix values="0 0 0 0 1 0 0 0 0 0.419608 0 0 0 0 0.419608 0 0 0 0.2 0"/><feBlend in2="BackgroundImageFix" result="effect1_dropShadow_1_328"/><feBlend in="SourceGraphic" in2="effect1_dropShadow_1_328" result="shape"/></filter><filter id="f" x="574" y="390" width="95" height="95" filterUnits="userSpaceOnUse" color-interpolation-filters="sRGB"><feFlood flood-opacity="0" result="BackgroundImageFix"/><feColorMatrix in="SourceAlpha" values="0 0 0 0 0 0 0 0 0 0 0 0 0 0 0 0 0 0 127 0" result="hardAlpha"/><feOffset dy="20"/><feGaussianBlur stdDeviation="10"/><feComposite in2="hardAlpha" operator="out"/><feColorMatrix values="0 0 0 0 0.246528 0 0 0 0 0.833333 0 0 0 0 0.370349 0 0 0 0.2 0"/><feBlend in2="BackgroundImageFix" result="effect1_dropShadow_1_328"/><feBlend in="SourceGraphic" in2="effect1_dropShadow_1_328" result="shape"/></filter><filter id="g" x="92.998" y="250.998" width="100.004" height="100.004" filterUnits="userSpaceOnUse" color-interpolation-filters="sRGB"><feFlood flood-opacity="0" result="BackgroundImageFix"/><feColorMatrix in="SourceAlpha" values="0 0 0 0 0 0 0 0 0 0 0 0 0 0 0 0 0 0 127 0" result="hardAlpha"/><feOffset dy="10"/><feGaussianBlur stdDeviation="13"/><feComposite in2="hardAlpha" operator="out"/><feColorMatrix values="0 0 0 0 0 0 0 0 0 0.501961 0 0 0 0 0.501961 0 0 0 0.2 0"/><feBlend in2="BackgroundImageFix" result="effect1_dropShadow_1_328"/><feBlend in="SourceGraphic" in2="effect1_dropShadow_1_328" result="shape"/></filter><linearGradient id="a" x1="225" y1="68" x2="181" y2="659" gradientUnits="userSpaceOnUse"><stop stop-color="#E9E9E9"/><stop offset="1" stop-color="#E9E9E9" stop-opacity="0"/></linearGradient><linearGradient id="c" x1="259" y1="454.5" x2="286" y2="612.5" gradientUnits="userSpaceOnUse"><stop stop-color="#47FFF5"/><stop offset="1" stop-color="#20B2AA" stop-opacity="0"/></linearGradient><clipPath id="h"><path fill="#fff" transform="translate(131 279)" d="M0 0h24v24H0z"/></clipPath></defs></svg>