<svg width="50" height="50" fill="none" xmlns="http://www.w3.org/2000/svg"><g clip-path="url(#a)" fill="#25BA6A"><path d="M14.583 0h-6.25A8.333 8.333 0 0 0 0 8.333v6.25a8.333 8.333 0 0 0 8.333 8.334h6.25a8.333 8.333 0 0 0 8.334-8.334v-6.25A8.333 8.333 0 0 0 14.583 0zm4.167 14.583a4.167 4.167 0 0 1-4.167 4.167h-6.25a4.167 4.167 0 0 1-4.166-4.167v-6.25a4.167 4.167 0 0 1 4.166-4.166h6.25a4.167 4.167 0 0 1 4.167 4.166v6.25zM14.583 27.083h-6.25A8.333 8.333 0 0 0 0 35.417v6.25A8.333 8.333 0 0 0 8.333 50h6.25a8.334 8.334 0 0 0 8.334-8.333v-6.25a8.333 8.333 0 0 0-8.334-8.334zm4.167 14.584a4.167 4.167 0 0 1-4.167 4.166h-6.25a4.167 4.167 0 0 1-4.166-4.166v-6.25a4.167 4.167 0 0 1 4.166-4.167h6.25a4.167 4.167 0 0 1 4.167 4.167v6.25zM41.667 27.083h-6.25a8.333 8.333 0 0 0-8.334 8.334v6.25A8.333 8.333 0 0 0 35.418 50h6.25A8.333 8.333 0 0 0 50 41.667v-6.25a8.333 8.333 0 0 0-8.333-8.334zm4.166 14.584a4.167 4.167 0 0 1-4.166 4.166h-6.25a4.167 4.167 0 0 1-4.167-4.166v-6.25a4.167 4.167 0 0 1 4.167-4.167h6.25a4.167 4.167 0 0 1 4.166 4.167v6.25zM29.167 14.583h6.25v6.25a2.083 2.083 0 0 0 4.166 0v-6.25h6.25a2.083 2.083 0 1 0 0-4.166h-6.25v-6.25a2.083 2.083 0 0 0-4.166 0v6.25h-6.25a2.083 2.083 0 1 0 0 4.166z"/></g><defs><clipPath id="a"><path fill="#fff" d="M0 0h50v50H0z"/></clipPath></defs></svg>