<svg width="50" height="50" fill="none" xmlns="http://www.w3.org/2000/svg"><g clip-path="url(#a)"><path d="m45.952 10.896-15.363-7.32a10.888 10.888 0 0 0-11.006-.093L4.048 10.895c-.059.03-.12.06-.175.094a7.69 7.69 0 0 0 .175 13.448l4.285 2.042v10.208a10.431 10.431 0 0 0 7.331 9.954A32.413 32.413 0 0 0 25 47.916c3.157.036 6.302-.39 9.335-1.264a10.431 10.431 0 0 0 7.331-9.954V26.475l4.167-1.992v17.183a2.083 2.083 0 0 0 4.167 0v-25c.014-2.446-1.918-4.706-4.048-5.77zM37.5 36.697a6.25 6.25 0 0 1-4.375 5.964A28.316 28.316 0 0 1 25 43.75a28.316 28.316 0 0 1-8.125-1.088 6.25 6.25 0 0 1-4.375-5.964v-8.234l6.91 3.292a10.983 10.983 0 0 0 5.636 1.54 10.416 10.416 0 0 0 5.368-1.446l7.086-3.386v8.234zm6.666-16.021-15.712 7.5a6.862 6.862 0 0 1-7.063-.094L6.018 20.77a3.525 3.525 0 0 1-.077-6.162L21.556 7.15a6.875 6.875 0 0 1 7.062.093l15.363 7.32a3.6 3.6 0 0 1 1.852 3.103 3.542 3.542 0 0 1-1.667 3.01z" fill="teal"/></g><defs><clipPath id="a"><path fill="#fff" d="M0 0h50v50H0z"/></clipPath></defs></svg>