<svg width="50" height="50" fill="none" xmlns="http://www.w3.org/2000/svg"><g clip-path="url(#a)" fill="#FF6B6B"><path d="M38.71 4.46 25.66.108a2.083 2.083 0 0 0-1.317 0L11.29 4.46a10.402 10.402 0 0 0-7.123 9.881v10.66c0 15.757 19.167 24.459 19.987 24.821a2.083 2.083 0 0 0 1.692 0c.82-.362 19.988-9.064 19.988-24.82v-10.66A10.402 10.402 0 0 0 38.71 4.46zM41.668 25c0 11.365-13.165 18.82-16.667 20.603-3.506-1.777-16.666-9.209-16.666-20.602v-10.66a6.25 6.25 0 0 1 4.275-5.93L25 4.28l12.392 4.13a6.25 6.25 0 0 1 4.275 5.93v10.66z"/><path d="m31.875 17.292-8.725 8.75-4.675-4.875a2.084 2.084 0 1 0-3.002 2.888l4.804 5a3.9 3.9 0 0 0 2.802 1.25h.069a3.901 3.901 0 0 0 2.781-1.152l8.9-8.9a2.09 2.09 0 1 0-2.954-2.96z"/></g><defs><clipPath id="a"><path fill="#fff" d="M0 0h50v50H0z"/></clipPath></defs></svg>