<svg width="24" height="24" fill="none" xmlns="http://www.w3.org/2000/svg"><g clip-path="url(#a)" stroke="#fff"><path d="M12 16.445a4.445 4.445 0 1 0 0-8.89 4.445 4.445 0 0 0 0 8.89z" stroke-width="2.3" stroke-linecap="round" stroke-linejoin="round"/><path d="M2 16.444V7.556A5.556 5.556 0 0 1 7.556 2h8.888A5.556 5.556 0 0 1 22 7.556v8.888A5.556 5.556 0 0 1 16.444 22H7.556A5.556 5.556 0 0 1 2 16.444z" stroke-width="2.5"/><path d="m18.111 5.9.012-.012" stroke-width="2.5" stroke-linecap="round" stroke-linejoin="round"/></g><defs><clipPath id="a"><path fill="#fff" d="M0 0h24v24H0z"/></clipPath></defs></svg>