<svg width="24" height="24" fill="none" xmlns="http://www.w3.org/2000/svg"><g clip-path="url(#a)"><path d="M24 23a1 1 0 0 1-1 1H1a1 1 0 1 1 0-2h22a1 1 0 0 1 1 1zM.291 8.552a2.443 2.443 0 0 1 .153-2.566c.427-.627 1-1.141 1.668-1.5L9.613.582a5.174 5.174 0 0 1 4.774 0l7.5 3.907c.669.359 1.24.873 1.668 1.5a2.442 2.442 0 0 1 .153 2.566A2.713 2.713 0 0 1 21.292 10H21v8h1a1 1 0 0 1 0 2H2a1 1 0 1 1 0-2h1v-8h-.292A2.713 2.713 0 0 1 .291 8.552zM5 18h3v-8H5v8zm5-8v8h4v-8h-4zm9 0h-3v8h3v-8zM2.063 7.625A.717.717 0 0 0 2.708 8h18.584a.717.717 0 0 0 .645-.375.453.453 0 0 0-.024-.5 2.7 2.7 0 0 0-.949-.864l-7.5-3.907a3.176 3.176 0 0 0-2.926 0l-7.5 3.907a2.712 2.712 0 0 0-.949.865.452.452 0 0 0-.026.499z" fill="#B59F28"/></g><defs><clipPath id="a"><path fill="#fff" d="M0 0h24v24H0z"/></clipPath></defs></svg>