<svg width="24" height="24" fill="none" xmlns="http://www.w3.org/2000/svg"><g clip-path="url(#a)" fill="#CF4141"><path d="M18.713 12H14a2 2 0 0 1-2-2V5.274a3 3 0 0 0-1.166-2.383 2.87 2.87 0 0 0-2.481-.534 10.969 10.969 0 0 0 .553 21.414 11 11 0 0 0 12.734-8.114 2.876 2.876 0 0 0-.533-2.485A3.054 3.054 0 0 0 18.713 12zm.988 3.168A8.968 8.968 0 1 1 8.84 4.3a.871.871 0 0 1 .765.172 1.016 1.016 0 0 1 .4.806V10a4 4 0 0 0 4 4h4.712a1.042 1.042 0 0 1 .816.4.884.884 0 0 1 .166.768z"/><path d="M23.651 7.446A10.073 10.073 0 0 0 16.582.372a2.1 2.1 0 0 0-1.315.075A2 2 0 0 0 14.019 2.3V7a3 3 0 0 0 3 3h4.72a2.008 2.008 0 0 0 1.912-2.554zM21.153 8h-4.138a1 1 0 0 1-1-1l-.008-4.693a.048.048 0 0 1 .025-.009h.026A8.072 8.072 0 0 1 21.734 8h-.58z"/></g><defs><clipPath id="a"><path fill="#fff" d="M0 0h24v24H0z"/></clipPath></defs></svg>